<?xml version="1.0" encoding="utf-8"?>
<!-- Generator: Adobe Illustrator 22.1.0, SVG Export Plug-In . SVG Version: 6.00 Build 0)  -->
<svg version="1.1" id="Layer_1" xmlns="http://www.w3.org/2000/svg" xmlns:xlink="http://www.w3.org/1999/xlink" x="0px" y="0px"
	 viewBox="0 0 24 24" style="enable-background:new 0 0 24 24;" xml:space="preserve">
<style type="text/css">
	.st0{fill:#FFFFFF;}
</style>
<path class="st0" d="M12.2,7.2c-1.1,0.2-1.7,1.2-1.2,2.3c0.5,1.2,1.9,1.9,3.1,1.6c1-0.3,1.5-1.3,1.1-2.3C14.6,7.7,13.3,7,12.2,7.2z
	 M13.6,10.2l0.1,0.2l-0.2,0l-0.1-0.2c-0.2,0-0.5,0-0.7,0l-0.1-0.4c0.2,0,0.4,0.1,0.6,0l0.1,0c0.2-0.1,0.2-0.4-0.2-0.5
	c-0.2-0.1-0.9,0-1.1-0.6c-0.1-0.3,0-0.6,0.4-0.8l-0.1-0.2l0.2,0L12.7,8c0.2,0,0.3,0,0.6,0l0.1,0.4c-0.2,0-0.4,0-0.5,0l-0.1,0
	c-0.3,0.1-0.2,0.4,0.1,0.4c0.5,0.1,1,0.1,1.2,0.6C14.2,9.8,14,10,13.6,10.2z M24,11.2L20.2,3c-6.2,4-13-0.3-18,4.5L6,15.7
	C11.3,11.2,18.5,15.4,24,11.2z M21.2,9.4c-0.4,0.5-0.7,1.1-0.8,1.7c-3.6,1.1-7.9-0.2-12,1.2c-0.7-0.4-1.5-0.6-2.2-0.6L5,9.3
	C5.4,8.8,5.8,8,5.9,7.2C9.3,6,13.6,7.4,18.1,5.8c0.5,0.3,1.1,0.6,1.7,0.7C19.8,6.5,21.2,9.4,21.2,9.4z M24,15
	c-6.9,3.9-12.4-1.4-19.5,6L0,11l1.4-1.5L5.2,18l0,0c7.4-5.6,11.2-1.2,18.1-4.6C23.6,14.1,23.9,14.7,24,15z"/>
</svg>
